<svg xmlns="http://www.w3.org/2000/svg" width="64" height="64" viewBox="0 0 64 64"><g fill="none" fill-rule="evenodd"><path fill="#F6AA5B" fill-rule="nonzero" d="M31.7896375,3.08304129 C31.9738941,2.9831436 32.1962811,2.9831436 32.3805376,3.08304129 L32.3805376,3.08304129 L39.7929749,7.18611802 L46.1296279,10.8540089 C46.2052762,10.9412314 46.2555267,11.048547 46.2734265,11.1639668 L46.2807116,11.257105 L46.2807116,26.5380233 C46.2817722,26.7440379 46.1750902,26.9356789 45.9992839,27.0435737 C45.8340036,27.4392652 45.5486453,27.7732905 45.183334,27.9986815 L45.183334,27.9986815 L33.0839626,34.9368657 C32.4397183,35.3081818 31.6459766,35.3081818 31.0017323,34.9368657 L31.0017323,34.9368657 L18.9023032,27.9986815 C18.5370011,27.7733055 18.2516438,27.4393016 18.0863533,27.0436314 C17.9105514,26.9357118 17.8038902,26.7440469 17.8049833,26.5380233 L17.8049833,26.5380233 L17.8049833,11.2571626 C17.8055007,11.0369148 17.9233984,10.833587 18.1144556,10.7234428 L18.1144556,10.7234428 L18.9047814,10.2784292 C18.9366975,10.260458 18.9629126,10.2338685 18.9804296,10.2017009 C18.9964106,10.1723539 19.0040785,10.1407134 19.0042314,10.1094858 L22.1919749,8.30611802 L22.3352364,8.39201203 Z M32.5796283,8.13053427 C32.2702272,7.95190148 31.8890294,7.95190148 31.5796283,8.13053427 L31.5796283,8.13053427 L22.8641391,13.1624243 C22.554738,13.3410571 22.3641391,13.6711841 22.3641391,14.0284497 L22.3641391,14.0284497 L22.3641391,24.0922298 C22.3641391,24.4494953 22.554738,24.7796224 22.8641391,24.9582552 L22.8641391,24.9582552 L31.5796283,29.9901452 C31.8890294,30.168778 32.2702272,30.168778 32.5796283,29.9901452 L32.5796283,29.9901452 L41.2951175,24.9582552 C41.6045186,24.7796224 41.7951175,24.4494953 41.7951175,24.0922298 L41.7951175,24.0922298 L41.7951175,14.0284497 C41.7951175,13.6711841 41.6045186,13.3410571 41.2951175,13.1624243 L41.2951175,13.1624243 Z" transform="rotate(-180 32.043 19.112)"/><path fill="#E7517D" fill-rule="nonzero" d="M15.2704849,30.2495484 C15.885528,29.9199589 16.6250895,29.9199589 17.2401326,30.2495484 L17.2401326,30.2495484 L29.339504,37.1877326 C29.5000084,37.3069086 29.6422138,37.4488505 29.7616167,37.609063 L29.7616167,37.609063 L30.0711468,37.7776758 C30.2907946,37.9014699 30.4132413,38.1459201 30.3806769,38.3956156 L30.3806769,38.3956156 L30.3806769,53.6203105 C30.3801475,53.8405701 30.2622262,54.0439007 30.0711468,54.1540302 L30.0711468,54.1540302 L29.7616744,54.3225854 C29.6419703,54.4825379 29.4998056,54.6244391 29.3395617,54.7439159 L29.3395617,54.7439159 L17.2401903,61.6821 C16.6918633,61.9981333 16.0352404,62.0451854 15.4546665,61.8232563 L11.5278458,59.6843563 L11.528137,59.5191092 L3.08669097,54.7157465 C2.96125182,54.6170707 2.84794028,54.5039344 2.74911622,54.3786937 L2.74911622,54.3786937 L2.27074106,54.1258609 C2.07967944,54.0157417 1.96176088,53.8124378 1.96121099,53.5921987 L1.96121099,53.5921987 L1.96121099,43.0304231 L1.93084583,43.0133563 L1.93076893,39.117364 C1.98391306,39.0638692 2.02184866,38.9952471 2.03754825,38.9185251 L2.04557582,38.8388933 L2.04557582,38.3393921 C2.0461138,38.1191649 2.16400877,37.9158638 2.35504819,37.80573 L2.35504819,37.80573 L2.62768887,37.6456439 C2.76429237,37.5654346 2.89015874,37.468205 3.00226843,37.3562878 C3.1143405,37.2444081 3.24070403,37.1478271 3.37807835,37.069052 L3.37807835,37.069052 Z M16.829906,35.1500484 C16.5205049,34.9714156 16.1393071,34.9714156 15.829906,35.1500484 L15.829906,35.1500484 L7.11441683,40.1819384 C6.80501575,40.3605712 6.61441683,40.6906982 6.61441683,41.0479638 L6.61441683,41.0479638 L6.61441683,51.1117439 C6.61441683,51.4690095 6.80501575,51.7991365 7.11441683,51.9777693 L7.11441683,51.9777693 L15.829906,57.0096593 C16.1393071,57.1882921 16.5205049,57.1882921 16.829906,57.0096593 L16.829906,57.0096593 L25.5453952,51.9777693 C25.8547963,51.7991365 26.0453952,51.4690095 26.0453952,51.1117439 L26.0453952,51.1117439 L26.0453952,41.0479638 C26.0453952,40.6906982 25.8547963,40.3605712 25.5453952,40.1819384 L25.5453952,40.1819384 Z" transform="rotate(-180 16.158 45.981)"/><path fill="#E7517D" fill-rule="nonzero" d="M46.6266827,30.2809009 C47.270927,29.9095849 48.0646687,29.9095849 48.708913,30.2809009 L48.708913,30.2809009 L60.8083421,37.1909734 C60.9489694,37.275251 61.1459168,37.5280838 61.1459168,37.5280838 L61.1459168,37.5280838 L61.624292,37.8089707 C61.8769343,37.9067083 62.0365518,38.1571019 62.0182446,38.4269681 L62.0182446,38.4269681 L62.0182446,38.8702457 C62.0182446,38.9389052 62.0361356,39.0063796 62.0701542,39.0660189 L62.0522676,39.0274139 L62.0522676,42.9934139 L61.9338798,43.0617756 L61.9338798,53.6235512 C61.9333299,53.8437903 61.8154113,54.0470942 61.6243497,54.1572134 L61.6243497,54.1572134 L61.2022947,54.4100462 L60.8646622,54.747099 L52.4232162,59.5504617 L52.4222676,59.6784139 L48.2890469,61.9058294 C47.801213,62.0505236 47.2725406,62.0127444 46.8060322,61.7924918 L46.6548427,61.7133949 L34.5554713,54.7752108 C34.3822969,54.6503863 34.2302953,54.4986457 34.1052562,54.3257686 L34.1052562,54.3257686 L33.7957262,54.1572134 C33.6046645,54.0470942 33.486746,53.8437903 33.4861961,53.6235512 L33.4861961,53.6235512 L33.4861961,38.4269681 C33.4596923,38.1928744 33.5688153,37.9641005 33.7675661,37.8370825 L33.7675661,37.8370825 L34.0770962,37.6685273 C34.202501,37.4959614 34.3544487,37.3442746 34.5273112,37.2190851 L34.5273112,37.2190851 Z M48.0218873,35.1814009 C47.7124862,35.0027681 47.3312884,35.0027681 47.0218873,35.1814009 L47.0218873,35.1814009 L38.3063981,40.2132909 C37.996997,40.3919237 37.8063981,40.7220507 37.8063981,41.0793163 L37.8063981,41.0793163 L37.8063981,51.1430964 C37.8063981,51.500362 37.996997,51.830489 38.3063981,52.0091218 L38.3063981,52.0091218 L47.0218873,57.0410118 C47.3312884,57.2196446 47.7124862,57.2196446 48.0218873,57.0410118 L48.0218873,57.0410118 L56.7373765,52.0091218 C57.0467776,51.830489 57.2373765,51.500362 57.2373765,51.1430964 L57.2373765,51.1430964 L57.2373765,41.0793163 C57.2373765,40.7220507 57.0467776,40.3919237 56.7373765,40.2132909 L56.7373765,40.2132909 Z" transform="rotate(-180 47.776 45.997)"/></g></svg>