<?xml version="1.0" standalone="no"?><!DOCTYPE svg PUBLIC "-//W3C//DTD SVG 1.1//EN" "http://www.w3.org/Graphics/SVG/1.1/DTD/svg11.dtd"><svg t="1768354385879" class="icon" viewBox="0 0 1024 1024" version="1.1" xmlns="http://www.w3.org/2000/svg" p-id="5435" xmlns:xlink="http://www.w3.org/1999/xlink" width="200" height="200"><path d="M334.26 769.715c-10.113 32.346-40.18 55.821-75.7 55.821-43.827 0-79.347-35.725-79.347-79.795 0-44.058 35.52-79.783 79.347-79.783 35.52 0 65.587 23.476 75.7 55.834h510.527v47.923H334.26z m-75.7-55.731c-17.446 0-31.59 14.22-31.59 31.757 0 17.549 14.144 31.782 31.59 31.782 17.446 0 31.59-14.233 31.59-31.782 0-17.536-14.144-31.757-31.59-31.757z m252.915-98.509h333.312v47.834H511.475v-47.834zM258.56 591.808c-43.827 0-79.347-35.725-79.347-79.795 0-44.058 35.52-79.783 79.347-79.783 35.52 0 65.587 23.476 75.7 55.821h510.527v47.936H334.26c-10.112 32.346-40.179 55.821-75.699 55.821z m0-111.552c-17.446 0-31.59 14.22-31.59 31.757 0 17.549 14.144 31.77 31.59 31.77 17.446 0 31.59-14.221 31.59-31.77 0-17.536-14.144-31.757-31.59-31.757z m252.915-101.094h333.312v47.833H511.475v-47.833zM258.56 358.08c-43.827 0-79.347-35.725-79.347-79.795 0-44.058 35.52-79.783 79.347-79.783 35.52 0 65.587 23.476 75.7 55.821h510.527v47.936H334.26c-10.125 32.346-40.179 55.821-75.699 55.821z m0-111.552c-17.446 0-31.59 14.22-31.59 31.757 0 17.549 14.144 31.77 31.59 31.77 17.446 0 31.59-14.221 31.59-31.77 0-17.536-14.144-31.757-31.59-31.757z" p-id="5436" fill="#ffffff"></path></svg>