<?xml version="1.0" encoding="UTF-8"?>
<svg xmlns="http://www.w3.org/2000/svg" version="1.1" viewBox="0 0 512 512">
  <defs>
    <style>
      .cls-1 {
        fill: none;
        stroke: #000;
        stroke-miterlimit: 10;
        stroke-width: 10px;
      }
    </style>
  </defs>
  <!-- Generator: Adobe Illustrator 28.7.4, SVG Export Plug-In . SVG Version: 1.2.0 Build 166)  -->
  <g>
    <g id="_图层_1" data-name="图层_1" focusable="false">
      <rect class="cls-1" x="-1912.6" y="-767.8" width="1952.6" height="633.5" rx="249.6" ry="249.6"/>
      <path d="M-738.8-483.1c0-35.3,28.6-64,64-64h64v128c0,53,42.1,96,96,96h128v64c0,35.3-28.7,64-64,64h-224c-35.4,0-64-28.7-64-64v-224ZM-514.8-355.1c-35.3,0-64-28.7-64-64v-224c0-35.4,28.7-64,64-64h224c35.3,0,64,28.6,64,64v224c0,35.3-28.7,64-64,64h-224Z"/>
      <g>
        <path d="M-1275.4-264.4c-64-10-119.4-23.1-165.5-40.1-51,17.4-109.3,30.9-184.7,43.6l-11.8-37.9c56.2-7.4,102.4-17.4,142.4-28.3-22.2-11.8-42.7-23.1-61.4-36.6-20.5,17-42.7,32.7-69.3,47l-20.5-35.3c45.3-24.8,79.3-52.7,103.2-81.9h-50.1v-110.6c-10.5,11.8-21.3,23.1-33.1,34.4l-27.9-35.3c37.5-32.7,78.8-84.1,95.8-122l39.6,18.3c-3,6.5-6.5,12.2-9.6,17.9h253.1v36.2h-276.6c-5.7,8.3-11.3,15.2-17.9,23.5h258.8v137.7h-209.5l22.7,10c-3.5,4.8-7,8.3-10.5,12.2h206.9v34.4c-27.9,20.5-55.3,36.6-86.7,51.8,36.6,8.7,76.2,14.8,121.1,18.7l-8.7,42.3ZM-1549.9-540.1v24h195.2v-24h-195.2ZM-1549.9-464.3h195.2v-23.5h-195.2v23.5ZM-1523.3-380.3c22.7,15.2,47.9,27,77.1,37.5,35.3-13.5,62.3-25.7,81.5-37.5h-158.6Z"/>
        <path d="M-1071.6-521.8h86.7v39.6h-86.7v36.6h76.2v113.3c0,27.9-10.5,37-40.5,39.2l-17.9,1.3-12.6-39.2,16.6-1.3c12.6-1.3,16.1-2.6,16.1-16.1v-58.8h-37.9v142.9h-40.5v-142.9h-43.6v113.3h-38.8v-151.6h82.3v-36.6h-105.4v-39.6h105.4v-42.3h-47c-5.2,15.2-10.9,28.3-16.6,40.1l-37.5-13.1c15.2-34.4,28.3-72.3,35.7-108.9l39.2,6.1c-2.2,11.8-5.2,23.5-8.3,35.7h34.4v-55.3l40.5,1.7v53.6h77.5v40.1h-77.5v42.3ZM-925.2-359.4h-41.4v-259.2l41.4,1.7v257.4ZM-849-652.5v331.1c0,41.4-10.9,49.2-57.5,54l-27.4,2.6-14.8-42.7,29.2-2.6c22.7-2.2,30.1-7.4,30.1-27.9v-316.3l40.5,1.7Z"/>
      </g>
    </g>
  </g>
</svg>