<?xml version="1.0" encoding="UTF-8"?>
<svg width="200" height="200" viewBox="0 0 200 200" xmlns="http://www.w3.org/2000/svg">
  <g fill="#FFFFFF" fill-rule="nonzero">
    <path d="M100 10C50.3 10 10 50.3 10 100s40.3 90 90 90 90-40.3 90-90-40.3-90-90-90Zm0 164c-40.9 0-74-33.1-74-74s33.1-74 74-74 74 33.1 74 74-33.1 74-74 74Z"/>
    <path d="M136 90h-8V76c0-18-12.9-31-28-31S72 58 72 76v14h-8c-5.5 0-10 4.5-10 10v42c0 5.5 4.5 10 10 10h72c5.5 0 10-4.5 10-10v-42c0-5.5-4.5-10-10-10ZM88 76c0-9.6 5.1-15 12-15s12 5.4 12 15v14H88V76Zm20 49.8V134c0 4.4-3.6 8-8 8s-8-3.6-8-8v-8.2c-3.6-2.5-6-6.7-6-11.4 0-7.7 6.3-14 14-14s14 6.3 14 14c0 4.7-2.4 8.9-6 11.4Z"/>
  </g>
</svg>
