<?xml version="1.0" standalone="no"?><!DOCTYPE svg PUBLIC "-//W3C//DTD SVG 1.1//EN" "http://www.w3.org/Graphics/SVG/1.1/DTD/svg11.dtd"><svg t="1735567688977" class="icon" viewBox="0 0 1024 1024" version="1.1" xmlns="http://www.w3.org/2000/svg" p-id="5595" xmlns:xlink="http://www.w3.org/1999/xlink" width="200" height="200"><path d="M160 0h512l256 256v704a64 64 0 0 1-64 64H160a64 64 0 0 1-64-64V64a64 64 0 0 1 64-64z" fill="#4876F9" p-id="5596"></path><path d="M672 0l256 256h-192a64 64 0 0 1-64-64V0z" fill="#B5C8FC" p-id="5597"></path><path d="M192 544a32 32 0 0 1 32-32h288a32 32 0 1 1 0 64H224a32 32 0 0 1-32-32zM192 672a32 32 0 0 1 32-32h576a32 32 0 1 1 0 64H224a32 32 0 0 1-32-32zM224 768a32 32 0 1 0 0 64h576a32 32 0 1 0 0-64H224z" fill="#ECF1FF" p-id="5598"></path></svg>