<?xml version="1.0" encoding="UTF-8"?>
<svg width="200" height="200" viewBox="0 0 200 200" xmlns="http://www.w3.org/2000/svg">
  <path fill="#FFFFFF" fill-rule="evenodd" d="M79.2 47.2c19.6 0 36.7 11.9 43.9 29.1 2.9-.8 6-1.2 9.2-1.2 19.6 0 35.5 15.9 35.5 35.5s-15.9 35.5-35.5 35.5H58.5c-22 0-39.8-17.8-39.8-39.8 0-19.2 13.6-35.2 31.7-39 8-12.2 21.7-20.1 28.8-20.1Zm20.1 85.9c4.4 0 8-3.6 8-8V97.9l10.7 10.7c3.1 3.1 8.2 3.1 11.3 0s3.1-8.2 0-11.3l-24.3-24.3c-3.1-3.1-8.2-3.1-11.3 0L69.4 97.3c-3.1 3.1-3.1 8.2 0 11.3s8.2 3.1 11.3 0l10.6-10.6v27.1c0 4.4 3.6 8 8 8Z"/>
</svg>
