<?xml version="1.0" standalone="no"?><!DOCTYPE svg PUBLIC "-//W3C//DTD SVG 1.1//EN" "http://www.w3.org/Graphics/SVG/1.1/DTD/svg11.dtd"><svg t="1753683390600" class="icon" viewBox="0 0 1024 1024" version="1.1" xmlns="http://www.w3.org/2000/svg" p-id="4408" xmlns:xlink="http://www.w3.org/1999/xlink" width="200" height="200"><path d="M137.28 410.35H70.52v203.29h40.66v-72.25h27.2c43.68 0 78.57-20.88 78.57-67.31 0-48.07-34.62-63.73-79.67-63.73z m-1.65 98.9h-24.45V442.5h23.08c28.02 0 42.86 7.97 42.86 31.59-0.01 23.35-13.47 35.16-41.49 35.16z m118.13 104.4h40.66v-76.92h28.3l41.76 76.92h45.33l-47.53-83.24c23.35-9.07 38.74-28.02 38.74-58.52 0-46.7-33.79-61.54-76.37-61.54h-70.88v203.3z m40.66-171.15h26.37c26.1 0 40.38 7.42 40.38 29.4 0 21.7-14.29 32.69-40.38 32.69h-26.37V442.5z m136.54 68.68c0 65.93 37.09 106.32 90.93 106.32s90.93-40.38 90.93-106.32-37.09-104.67-90.93-104.67c-53.85 0-90.93 38.46-90.93 104.67z m140.38 0c0 43.41-19.23 71.15-49.45 71.15-30.22 0-49.45-27.75-49.45-71.15 0-43.68 19.23-69.78 49.45-69.78 30.22 0 49.45 26.1 49.45 69.78z m117.31 57.41c4.95-10.44 9.62-21.15 14.83-33.52h1.1c6.04 12.36 10.71 23.08 15.93 33.52l22.8 45.05h45.05l-57.14-103.02 53.57-100.27h-42.86l-19.23 41.76c-4.4 9.62-8.52 19.51-13.46 32.14h-1.37c-6.04-12.64-10.44-22.53-15.11-32.14l-20.33-41.76h-45.05l53.57 98.35-57.14 104.94h43.13l21.71-45.05z m222.52-158.24l-20.33 49.45c-5.77 15.11-11.81 29.4-18.13 45.05h-1.1c-6.32-15.66-11.81-29.94-17.58-45.05l-20.33-49.45h-43.13l60.99 128.84v74.45h40.66V539.2l61.26-128.84h-42.31zM323.93 266.98h304.21v60.99H323.93z m0 425.93h303.49v60.99H323.93z m-70.36-530.6c0-14.39 11.67-26.06 26.06-26.06h361.09v70.11c0 33.62 27.25 60.87 60.87 60.87h83.64v99.02l-0.01 0.01v21.92h38.02v-32.11l0.01-0.01v-89.07L640.72 98.23H279.63c-35.4 0-64.08 28.69-64.08 64.08v225.87h38.02V162.31zM785.22 861.2c0.01 14.39-11.66 26.06-26.05 26.06H279.63c-14.39 0-26.06-11.67-26.06-26.06V647.59h-38.02V861.2c0 35.4 28.7 64.08 64.08 64.08h479.53c35.4 0 64.08-28.69 64.08-64.08V647.59h-38.02V861.2z" p-id="4409" fill="#2c2c2c"></path></svg>