<?xml version="1.0" standalone="no"?><!DOCTYPE svg PUBLIC "-//W3C//DTD SVG 1.1//EN" "http://www.w3.org/Graphics/SVG/1.1/DTD/svg11.dtd"><svg t="1768348602493" class="icon" viewBox="0 0 1024 1024" version="1.1" xmlns="http://www.w3.org/2000/svg" p-id="1823" xmlns:xlink="http://www.w3.org/1999/xlink" width="200" height="200"><path d="M905.728 646.272C920.48 603.04 928 557.664 928 512c0-229.76-186.24-416-416-416S96 282.24 96 512s186.24 416 416 416c45.664 0 91.04-7.52 134.272-22.272a192 192 0 1 1 259.456-259.456z m-451.84-96.064H368a16.32 16.32 0 0 1-14.976-22.24L438.4 298.56A16 16 0 0 1 453.344 288h144c11.328 0 19.072 11.776 14.784 22.56l-49.664 124.928h93.504c13.76 0 21.12 16.608 12.032 27.2l-229.312 267.648c-11.136 13.024-31.808 1.728-27.488-15.008l42.688-165.12zM896 736a160 160 0 1 1-320 0 160 160 0 0 1 320 0z m-244.288 32a32 32 0 0 0 27.712 48h110.848a32 32 0 0 0 27.712-48l-55.424-96a32 32 0 0 0-55.424 0l-55.424 96z" p-id="1824" fill="#ffffff"></path></svg>