<?xml version="1.0" encoding="UTF-8"?>
<svg width="280px" height="280px" viewBox="0 0 280 280" version="1.1" xmlns="http://www.w3.org/2000/svg" xmlns:xlink="http://www.w3.org/1999/xlink">
    <title>Extra Large@1x</title>
    <g id="Extra-Large" stroke="none" stroke-width="1" fill="none" fill-rule="evenodd">
        <g id="json" transform="translate(40, 40)" fill="#FFFFFF" fill-rule="nonzero">
            <path d="M100,0 C44.765625,0 0,44.765625 0,100 C0,155.234375 44.765625,200 100,200 C155.234375,200 200,155.234375 200,100 C200,44.765625 155.234375,0 100,0 Z M100,187.5 C51.6796875,187.5 12.5,148.320312 12.5,100 C12.5,51.6796875 51.6796875,12.5 100,12.5 C148.320312,12.5 187.5,51.6796875 187.5,100 C187.5,148.320312 148.320312,187.5 100,187.5 Z" id="形状"></path>
            <path d="M51.3476562,83.0859375 L51.3476562,103.320312 C51.3476562,105.078125 51.2695312,106.5625 51.1328125,107.792969 C50.9765625,109.023437 50.6445312,110.273438 50.1171875,111.542969 C49.2382812,113.671875 47.7929687,115.332031 45.7617187,116.503906 C43.75,117.695312 41.2890625,118.28125 38.3789062,118.28125 C35.7617187,118.28125 33.5742187,117.871094 31.8359375,117.050781 C30.078125,116.230469 28.671875,114.882813 27.5976562,113.046875 C27.03125,112.070313 26.5820312,110.9375 26.2304687,109.648438 C25.8789062,108.359375 25.703125,107.148438 25.703125,105.976563 C25.703125,104.746094 26.0546875,103.808594 26.7382812,103.164063 C27.421875,102.519531 28.3007812,102.1875 29.375,102.1875 C30.4101562,102.1875 31.1914062,102.480469 31.71875,103.085938 C32.2460937,103.691406 32.65625,104.609375 32.9296875,105.878906 C33.2226562,107.226563 33.5351562,108.320313 33.828125,109.121094 C34.1210937,109.921875 34.6289062,110.625 35.3320312,111.210938 C36.0351562,111.796875 37.03125,112.089844 38.3398437,112.089844 C41.796875,112.089844 43.5351562,109.550781 43.5351562,104.472656 L43.5351562,83.0859375 C43.5351562,81.5039062 43.8867187,80.3125 44.5703125,79.53125 C45.2734375,78.75 46.2109375,78.3398438 47.4023437,78.3398438 C48.6132812,78.3398438 49.5703125,78.7304688 50.2929687,79.53125 C50.9765625,80.3125 51.3476562,81.5039063 51.3476562,83.0859375 L51.3476562,83.0859375 Z" id="路径"></path>
            <path d="M38.3789062,120.234375 C35.4882812,120.234375 33.0078125,119.746094 30.9960938,118.808594 C28.8867187,117.8125 27.1875,116.210938 25.9179688,114.023438 C25.2734375,112.890625 24.7460938,111.601563 24.3554688,110.15625 C23.9648438,108.710938 23.75,107.304688 23.75,105.976563 C23.75,104.199219 24.296875,102.773438 25.390625,101.738281 C26.4453125,100.742188 27.7929688,100.234375 29.375,100.234375 C31.3867188,100.234375 32.5585938,101.074219 33.1835938,101.796875 C33.9453125,102.65625 34.4726562,103.847656 34.84375,105.449219 C35.1171875,106.71875 35.390625,107.714844 35.6640625,108.4375 C35.8398438,108.925781 36.1328125,109.335938 36.5820312,109.6875 C36.9140625,109.960938 37.5195312,110.117188 38.3398438,110.117188 C39.3945312,110.117188 41.5820312,110.117188 41.5820312,104.453125 L41.5820312,83.0859375 C41.5820312,81.015625 42.0898438,79.3945312 43.1054688,78.2421875 C44.1601562,77.03125 45.6640625,76.3867188 47.4023438,76.3867188 C49.1601562,76.3867188 50.6640625,77.0117188 51.7382812,78.2226562 C52.7734375,79.375 53.3007812,81.015625 53.3007812,83.0859375 L53.3007812,103.320312 C53.3007812,105.136719 53.2226562,106.738281 53.0664062,108.027344 C52.890625,109.433594 52.5,110.859375 51.9140625,112.285156 C50.8789063,114.804688 49.140625,116.777344 46.7578125,118.183594 C44.4335938,119.550781 41.6210938,120.234375 38.3789062,120.234375 Z M29.375,104.140625 C28.6328125,104.140625 28.28125,104.394531 28.0859375,104.570313 C27.8125,104.824219 27.6757813,105.3125 27.6757813,105.976563 C27.6757813,106.953125 27.8320313,108.007813 28.125,109.121094 C28.4375,110.234375 28.828125,111.230469 29.3164063,112.070313 C30.1953125,113.574219 31.2890625,114.628906 32.6757812,115.273438 C34.1601562,115.976563 36.0742188,116.328125 38.3984375,116.328125 C40.9375,116.328125 43.0859375,115.820313 44.7851562,114.824219 C46.4453125,113.847656 47.5976563,112.539063 48.3203125,110.800781 C48.7695313,109.707031 49.0820312,108.613281 49.1992188,107.578125 C49.3359375,106.425781 49.4140625,105 49.4140625,103.339844 L49.4140625,83.0859375 C49.4140625,82.03125 49.21875,81.25 48.8476562,80.8398438 C48.6132812,80.5859375 48.2617188,80.2929688 47.421875,80.2929688 C46.6210938,80.2929688 46.2695312,80.5664062 46.0546875,80.8203125 C45.6835938,81.2304688 45.5078125,82.0117188 45.5078125,83.0859375 L45.5078125,104.453125 C45.5078125,112.773438 41.0351562,114.023438 38.359375,114.023438 C36.6015625,114.023438 35.1757812,113.574219 34.1210938,112.714844 C33.1445312,111.914062 32.4414062,110.9375 32.03125,109.804688 C31.6992188,108.90625 31.3867188,107.753906 31.0546875,106.308594 C30.78125,105.097656 30.4492188,104.589844 30.2929688,104.394531 C30.078125,104.179688 29.6679688,104.140625 29.375,104.140625 Z M89.1796875,106.035156 C89.1796875,108.378906 88.5742188,110.46875 87.3828125,112.324219 C86.171875,114.179688 84.4140625,115.644531 82.109375,116.699219 C79.7851563,117.753906 77.0507813,118.28125 73.8671875,118.28125 C70.0585938,118.28125 66.9140625,117.558594 64.4335938,116.113281 C62.6757813,115.078125 61.25,113.691406 60.15625,111.972656 C59.0625,110.234375 58.515625,108.554688 58.515625,106.933594 C58.515625,105.976562 58.8476563,105.175781 59.5117188,104.492188 C60.1757813,103.808594 61.015625,103.476562 62.03125,103.476562 C62.8515625,103.476562 63.5546875,103.730469 64.1210938,104.257812 C64.6875,104.785156 65.1757813,105.566406 65.5859375,106.601562 C66.0742188,107.832031 66.6015625,108.867188 67.1875,109.6875 C67.7539063,110.507812 68.5546875,111.191406 69.5898438,111.738281 C70.625,112.265625 71.9921875,112.539062 73.671875,112.539062 C75.9960938,112.539062 77.8710938,111.992188 79.3164063,110.917969 C80.7617188,109.84375 81.484375,108.496094 81.484375,106.875 C81.484375,105.585937 81.09375,104.550781 80.3125,103.75 C79.53125,102.949219 78.515625,102.34375 77.2851563,101.914062 C76.0546875,101.484375 74.3945313,101.035156 72.3242188,100.566406 C69.5507813,99.921875 67.2265625,99.1601562 65.3515625,98.28125 C63.4765625,97.4023438 61.9921875,96.2304688 60.8984375,94.7265625 C59.8046875,93.2226562 59.2578125,91.3671875 59.2578125,89.1210938 C59.2578125,86.9921875 59.84375,85.1171875 60.9960938,83.4570312 C62.1484375,81.796875 63.828125,80.546875 66.0351563,79.6484375 C68.2226563,78.7695312 70.8203125,78.3203125 73.7890625,78.3203125 C76.1523438,78.3203125 78.203125,78.6132812 79.9414063,79.1992188 C81.6796875,79.7851562 83.1054688,80.5664062 84.2578125,81.5429688 C85.390625,82.5195312 86.2304688,83.5351562 86.7578125,84.609375 C87.2851563,85.6835938 87.5390625,86.71875 87.5390625,87.7539062 C87.5390625,88.6914062 87.2070313,89.53125 86.5429688,90.2734375 C85.8789063,91.015625 85.0585938,91.3867188 84.0820313,91.3867188 C83.1835938,91.3867188 82.5,91.171875 82.03125,90.7226562 C81.5625,90.2734375 81.0546875,89.5507812 80.5078125,88.515625 C79.8046875,87.0507812 78.9648438,85.9179688 77.96875,85.0976562 C76.9921875,84.2773438 75.4101563,83.8671875 73.2226563,83.8671875 C71.2109375,83.8671875 69.5703125,84.3164062 68.3398438,85.1953125 C67.109375,86.0742188 66.484375,87.1484375 66.484375,88.3984375 C66.484375,89.1796875 66.6992188,89.84375 67.109375,90.4101562 C67.5390625,90.9765625 68.1054688,91.4648438 68.8476563,91.8554688 C69.5898438,92.265625 70.3320313,92.578125 71.09375,92.8125 C71.8554688,93.046875 73.1054688,93.3789062 74.84375,93.8085938 C77.03125,94.3164062 78.984375,94.8828125 80.7617188,95.4882812 C82.5195312,96.09375 84.0234375,96.8554688 85.2734375,97.734375 C86.5039063,98.6132812 87.4804688,99.7265625 88.1640625,101.074219 C88.828125,102.421875 89.1796875,104.082031 89.1796875,106.035156 Z" id="形状"></path>
            <path d="M73.8476562,120.234375 C69.7070312,120.234375 66.1914062,119.414062 63.4375,117.8125 C61.40625,116.621094 59.7460938,115 58.4960938,113.027344 C57.2070312,110.996094 56.5429688,108.945313 56.5429688,106.933594 C56.5429688,105.488281 57.0703125,104.160156 58.0859375,103.125 C59.1015625,102.070313 60.46875,101.523438 61.9921875,101.523438 C63.3007812,101.523438 64.4921875,101.972656 65.4101562,102.832031 C66.2109375,103.574219 66.8554687,104.570312 67.3632812,105.898438 C67.7929688,106.972656 68.2617188,107.871094 68.75,108.574219 C69.140625,109.140625 69.6875,109.609375 70.4492188,110 C71.1914062,110.390625 72.265625,110.585938 73.6328125,110.585938 C75.5078125,110.585938 77.0117188,110.175781 78.125,109.355469 C79.0820312,108.632813 79.5117188,107.871094 79.5117188,106.875 C79.5117188,105.859375 79.1601562,105.390625 78.8867188,105.117188 C78.3203125,104.550781 77.5585938,104.082031 76.6210938,103.769531 C75.4492188,103.378906 73.8476562,102.929688 71.8554688,102.480469 C68.9648438,101.796875 66.484375,100.996094 64.4921875,100.078125 C62.3242188,99.0625 60.5664063,97.6757813 59.2773438,95.8984375 C57.9296875,94.0625 57.2460938,91.796875 57.2460938,89.140625 C57.2460938,86.6210938 57.9492188,84.3359375 59.3359375,82.3632813 C60.703125,80.4101563 62.6953125,78.8867188 65.234375,77.8710938 C67.65625,76.8945313 70.5078125,76.40625 73.7109375,76.40625 C76.2890625,76.40625 78.5742188,76.7382813 80.4882812,77.4023438 C82.4414062,78.0664063 84.1015625,78.984375 85.4296875,80.1171875 C86.7773438,81.2695313 87.7734375,82.5 88.4179688,83.8085938 C89.0820312,85.1367188 89.4140625,86.484375 89.4140625,87.8125 C89.4140625,89.2382813 88.9257813,90.5078125 87.9296875,91.6210938 C86.8945312,92.7929688 85.546875,93.3984375 84.0039062,93.3984375 C82.5976562,93.3984375 81.4453125,92.9882813 80.6054688,92.1875 C79.9804688,91.5820313 79.375,90.703125 78.7304688,89.4921875 L78.6914062,89.4140625 C78.1054688,88.2226563 77.4414063,87.2851563 76.6796875,86.6601563 C76.328125,86.3671875 75.4101562,85.8789063 73.1835938,85.8789063 C71.5820313,85.8789063 70.3320312,86.2109375 69.4335938,86.8359375 C68.515625,87.5 68.3984375,88.046875 68.3984375,88.4570313 C68.3984375,88.90625 68.5351562,89.140625 68.6328125,89.296875 C68.8867188,89.6289063 69.2578125,89.9414063 69.7460938,90.1953125 C70.3710938,90.5273438 70.9960938,90.8007813 71.6210938,90.9960938 C72.34375,91.2109375 73.5742188,91.5429688 75.2539063,91.9726563 C77.4804688,92.5 79.53125,93.0859375 81.3476563,93.7109375 C83.28125,94.375 84.9609375,95.2148438 86.3476563,96.2109375 C87.8320313,97.265625 89.0234375,98.6328125 89.84375,100.234375 C90.6835938,101.855469 91.09375,103.808594 91.09375,106.074219 C91.09375,108.789063 90.390625,111.25 88.984375,113.4375 C87.578125,115.605469 85.5273438,117.324219 82.8710938,118.535156 C80.3320312,119.648438 77.2851562,120.234375 73.8476562,120.234375 L73.8476562,120.234375 Z M61.9726563,105.429688 C61.3476563,105.429688 61.0546875,105.644531 60.859375,105.859375 C60.546875,106.171875 60.4296875,106.484375 60.4296875,106.933594 C60.4296875,108.183594 60.8789063,109.53125 61.7773438,110.9375 C62.7148438,112.421875 63.90625,113.574219 65.4101563,114.453125 C67.5585938,115.703125 70.4101563,116.347656 73.8476562,116.347656 C76.7382812,116.347656 79.2382813,115.878906 81.2890625,114.941406 C83.28125,114.042969 84.7265625,112.832031 85.7421875,111.289063 C86.7382813,109.726563 87.2265625,108.027344 87.2265625,106.054688 C87.2265625,104.433594 86.953125,103.066406 86.40625,102.011719 C85.859375,100.9375 85.0976563,100.078125 84.1210938,99.375 C83.046875,98.6132813 81.6796875,97.9296875 80.0976563,97.3828125 C78.3984375,96.796875 76.484375,96.25 74.375,95.7617188 L74.3359375,95.7617188 C72.5585938,95.3125 71.2890625,94.9804688 70.5078125,94.7265625 C69.6289063,94.453125 68.75,94.0820313 67.890625,93.6132813 C66.9140625,93.0859375 66.1132813,92.4023438 65.5273438,91.6210938 C64.84375,90.7226563 64.5117188,89.6484375 64.5117188,88.4570313 C64.5117188,87.1484375 64.9804688,85.2539063 67.1875,83.671875 C68.75,82.5390625 70.78125,81.9726563 73.203125,81.9726563 C75.8789063,81.9726563 77.8320313,82.5195313 79.1992188,83.6523438 C80.390625,84.6289063 81.40625,85.9960938 82.2265625,87.6757813 C82.7929688,88.75 83.1835938,89.1796875 83.359375,89.3554688 C83.3984375,89.3945313 83.59375,89.4726563 84.0429688,89.4726563 C84.4726563,89.4726563 84.7460938,89.3359375 85.0390625,89.0234375 C85.390625,88.6328125 85.546875,88.2617188 85.546875,87.7929688 C85.546875,87.0898438 85.3515625,86.3085938 84.9609375,85.5273438 C84.5507813,84.7070313 83.8671875,83.8867188 82.9492188,83.0859375 C82.0117188,82.2851563 80.7617188,81.6015625 79.2773438,81.1132813 C77.7539063,80.6054688 75.8984375,80.3320313 73.75,80.3320313 C71.0546875,80.3320313 68.6914063,80.7226563 66.7382813,81.5234375 C64.8828125,82.265625 63.515625,83.3007813 62.578125,84.6484375 C61.640625,85.9765625 61.1914063,87.4609375 61.1914063,89.1992188 C61.1914063,91.015625 61.6015625,92.4804688 62.4609375,93.6523438 C63.359375,94.9023438 64.5703125,95.859375 66.1523438,96.5820313 C67.890625,97.3828125 70.1171875,98.1054688 72.734375,98.7304688 C74.84375,99.21875 76.5820312,99.6875 77.890625,100.117188 C79.4140625,100.644531 80.6835938,101.40625 81.6796875,102.421875 C82.8320312,103.59375 83.4179688,105.097656 83.4179688,106.914063 C83.4179688,109.140625 82.4023438,111.074219 80.4492188,112.519531 C78.6523438,113.847656 76.3671875,114.53125 73.6328125,114.53125 C71.6015625,114.53125 69.9804688,114.199219 68.6523438,113.515625 C67.34375,112.832031 66.2890625,111.933594 65.5273438,110.859375 C64.8828125,109.921875 64.2773438,108.75 63.7304688,107.382813 C63.359375,106.425781 62.9882812,105.976563 62.7539063,105.742188 C62.5976562,105.566406 62.4023438,105.429688 61.9726563,105.429688 Z M112.8125,78.3398438 C116.816406,78.3398438 120.253906,79.1601563 123.125,80.78125 C125.996094,82.4023438 128.164062,84.7070313 129.648437,87.7148438 C131.132812,90.703125 131.855469,94.21875 131.855469,98.2617188 C131.855469,101.25 131.445312,103.964844 130.644531,106.40625 C129.84375,108.847656 128.632812,110.957031 127.011719,112.753906 C125.390625,114.550781 123.417969,115.917969 121.054687,116.855469 C118.691406,117.8125 115.996094,118.28125 112.96875,118.28125 C109.941406,118.28125 107.246094,117.792969 104.863281,116.816406 C102.480469,115.839844 100.488281,114.472656 98.8867187,112.695312 C97.2851562,110.917969 96.0742187,108.789063 95.2734375,106.289063 C94.453125,103.789063 94.0429687,101.09375 94.0429687,98.203125 C94.0429687,95.234375 94.4726562,92.5195313 95.3125,90.0390625 C96.171875,87.5585938 97.4023437,85.4492188 99.0234375,83.7109375 C100.644531,81.9726563 102.597656,80.6445313 104.921875,79.7265625 C107.226562,78.7890625 109.863281,78.3398438 112.8125,78.3398438 L112.8125,78.3398438 Z M123.925781,98.203125 C123.925781,95.3710938 123.476563,92.9296875 122.558594,90.859375 C121.640625,88.7890625 120.332031,87.2265625 118.652344,86.1523438 C116.953125,85.0976562 115.019531,84.5507812 112.8125,84.5507812 C111.25,84.5507812 109.804688,84.84375 108.476562,85.4296875 C107.148438,86.015625 106.015625,86.875 105.058594,88.0078125 C104.101563,89.140625 103.339844,90.5664062 102.792969,92.3242188 C102.246094,94.0625 101.972656,96.0351562 101.972656,98.203125 C101.972656,100.390625 102.246094,102.382813 102.792969,104.160156 C103.339844,105.9375 104.121094,107.402344 105.136719,108.574219 C106.152344,109.746094 107.304688,110.625 108.613281,111.191406 C109.921875,111.777344 111.347656,112.070312 112.929688,112.070312 C114.941406,112.070312 116.777344,111.5625 118.457031,110.566406 C120.136719,109.570312 121.464844,108.027344 122.460938,105.9375 C123.417969,103.828125 123.925781,101.25 123.925781,98.203125 L123.925781,98.203125 Z" id="形状"></path>
            <path d="M112.96875,120.234375 C109.707031,120.234375 106.738281,119.6875 104.121094,118.632812 C101.464844,117.558594 99.21875,115.996094 97.421875,114.003906 C95.6445312,112.03125 94.296875,109.648438 93.3984375,106.894531 C92.5195312,104.21875 92.0703125,101.289062 92.0703125,98.203125 C92.0703125,95.0390625 92.5390625,92.0703125 93.4570312,89.3945312 C94.3945312,86.6601562 95.78125,84.3164062 97.578125,82.3828125 C99.3945313,80.4296875 101.601563,78.9257812 104.179688,77.9101562 C106.71875,76.8945312 109.628906,76.3867188 112.8125,76.3867188 C117.148438,76.3867188 120.9375,77.2851562 124.082031,79.0820312 C127.285156,80.8984375 129.746094,83.515625 131.386719,86.8554688 C132.988281,90.1171875 133.808594,93.9453125 133.808594,98.2617188 C133.808594,101.445312 133.359375,104.394531 132.5,107.011719 C131.601562,109.707031 130.253906,112.070312 128.457031,114.0625 C126.640625,116.074219 124.394531,117.617188 121.777344,118.671875 C119.199219,119.707031 116.230469,120.234375 112.96875,120.234375 L112.96875,120.234375 Z M112.8125,80.2929688 C110.117188,80.2929688 107.714844,80.703125 105.625,81.5429688 C103.59375,82.34375 101.835938,83.5351562 100.429688,85.0585938 C99.0039063,86.5820313 97.9101563,88.4765625 97.1484375,90.6835938 C96.3671875,92.9492188 95.9765625,95.46875 95.9765625,98.2226563 C95.9765625,100.898438 96.3476563,103.417969 97.109375,105.703125 C97.8320313,107.929688 98.9257813,109.84375 100.332031,111.40625 C101.71875,112.949219 103.496094,114.179688 105.605469,115.019531 C107.753906,115.898438 110.234375,116.328125 112.988281,116.328125 C115.761719,116.328125 118.242188,115.898438 120.351563,115.039063 C122.421875,114.199219 124.179688,112.988281 125.585938,111.425781 C127.011719,109.84375 128.105469,107.949219 128.808594,105.761719 C129.550781,103.535156 129.921875,100.996094 129.921875,98.2421875 C129.921875,94.53125 129.238281,91.2695313 127.910156,88.5546875 C126.601563,85.8984375 124.726563,83.90625 122.1875,82.4609375 C119.589844,81.015625 116.445313,80.2929688 112.8125,80.2929688 L112.8125,80.2929688 Z M112.910156,114.003906 C111.074219,114.003906 109.355469,113.652344 107.8125,112.96875 C106.25,112.265625 104.84375,111.230469 103.652344,109.84375 C102.480469,108.476563 101.542969,106.757813 100.917969,104.726563 C100.3125,102.773438 100,100.566406 100,98.1835938 C100,95.8203125 100.3125,93.6328125 100.917969,91.6992188 C101.542969,89.7070313 102.441406,88.0273438 103.554688,86.71875 C104.707031,85.3710938 106.09375,84.3359375 107.675781,83.6328125 C109.238281,82.9296875 110.976562,82.578125 112.792969,82.578125 C115.351563,82.578125 117.65625,83.2226563 119.667969,84.4726563 C121.699219,85.7421875 123.261719,87.6171875 124.335938,90.0390625 C125.351563,92.34375 125.878906,95.0976562 125.878906,98.1835938 C125.878906,101.523438 125.3125,104.394531 124.199219,106.738281 C123.046875,109.179688 121.445313,111.015625 119.433594,112.207031 C117.460938,113.417969 115.253906,114.003906 112.910156,114.003906 L112.910156,114.003906 Z M112.8125,86.5039063 C111.523438,86.5039063 110.332031,86.7382813 109.277344,87.2265625 C108.203125,87.6953125 107.324219,88.3789062 106.542969,89.2773438 C105.761719,90.1953125 105.117188,91.4257812 104.648437,92.9101563 C104.160156,94.453125 103.90625,96.25 103.90625,98.203125 C103.90625,100.195313 104.160156,101.992188 104.648437,103.574219 C105.117187,105.078125 105.78125,106.328125 106.601562,107.285156 C107.421875,108.242188 108.339844,108.925781 109.394531,109.394531 C110.449219,109.863281 111.621094,110.097656 112.910156,110.097656 C114.570312,110.097656 116.054687,109.6875 117.421875,108.867188 C118.769531,108.066406 119.824219,106.816406 120.664062,105.078125 C121.523437,103.261719 121.972656,100.9375 121.972656,98.203125 C121.972656,95.6640625 121.5625,93.4570313 120.761719,91.640625 C120,89.921875 118.964844,88.671875 117.597656,87.8125 C116.210937,86.9335938 114.648437,86.5039063 112.8125,86.5039063 L112.8125,86.5039063 Z M148.75,83.0273438 L163.789062,105.78125 L163.789062,82.8125 C163.789062,81.328125 164.101562,80.1953125 164.746094,79.453125 C165.390625,78.7109375 166.25,78.3398438 167.34375,78.3398438 C168.476562,78.3398438 169.355469,78.7109375 170,79.453125 C170.644531,80.1953125 170.976562,81.328125 170.976562,82.8125 L170.976562,113.183594 C170.976562,116.582031 169.570312,118.261719 166.757812,118.261719 C166.054688,118.261719 165.429688,118.164062 164.863281,117.949219 C164.296875,117.753906 163.769531,117.421875 163.28125,116.992188 C162.792969,116.5625 162.324219,116.035156 161.914062,115.449219 C161.484375,114.863281 161.074219,114.257812 160.644531,113.652344 L145.976562,91.1523438 L145.976562,113.789063 C145.976562,115.273438 145.625,116.386719 144.941406,117.128906 C144.257812,117.890625 143.378906,118.261719 142.304687,118.261719 C141.191406,118.261719 140.3125,117.871094 139.648437,117.109375 C138.984375,116.347656 138.652344,115.234375 138.652344,113.769531 L138.652344,84.0039063 C138.652344,82.734375 138.789062,81.7382813 139.082031,81.0351563 C139.414062,80.2539063 139.960937,79.5898438 140.742187,79.1015625 C141.523437,78.59375 142.34375,78.359375 143.242187,78.359375 C143.945312,78.359375 144.550781,78.4765625 145.039062,78.7109375 C145.546875,78.9453125 145.976562,79.2382813 146.347656,79.6289063 C146.71875,80.0195313 147.109375,80.5078125 147.5,81.1328125 C147.910156,81.71875 148.320312,82.3632813 148.75,83.0273438 L148.75,83.0273438 Z" id="形状"></path>
            <path d="M166.757812,120.234375 C165.839844,120.234375 164.980469,120.097656 164.199219,119.824219 C163.398438,119.53125 162.65625,119.082031 161.972656,118.476563 C161.367188,117.949219 160.820312,117.324219 160.3125,116.621094 C159.882812,116.015625 159.453125,115.390625 159.023438,114.785156 L159.003906,114.746094 L147.910156,97.7539063 L147.910156,113.808594 C147.910156,115.78125 147.402344,117.34375 146.367188,118.457031 C145.3125,119.609375 143.90625,120.234375 142.285156,120.234375 C140.625,120.234375 139.199219,119.609375 138.144531,118.417969 C137.167969,117.285156 136.660156,115.742188 136.660156,113.808594 L136.660156,84.0039063 C136.660156,82.4804688 136.835938,81.2695313 137.207031,80.3125 L137.226562,80.2539063 C137.714844,79.1015625 138.515625,78.1445313 139.628906,77.4414063 C140.722656,76.7382813 141.914062,76.3671875 143.183594,76.3671875 C144.160156,76.3671875 145.039062,76.5429688 145.800781,76.8945313 C146.523438,77.2265625 147.167969,77.6757813 147.695312,78.2226563 C148.164062,78.7109375 148.632812,79.3164063 149.101562,80.0390625 C149.492188,80.6445313 149.902344,81.2890625 150.332031,81.953125 L161.777344,99.2773438 L161.777344,82.8125 C161.777344,80.8398438 162.265625,79.296875 163.203125,78.1835938 C164.21875,77.0117188 165.625,76.3867188 167.285156,76.3867188 C168.964844,76.3867188 170.390625,77.0117188 171.425781,78.1835938 C172.382812,79.296875 172.871094,80.859375 172.871094,82.8320313 L172.871094,113.203125 C172.929688,119.550781 168.613281,120.234375 166.757812,120.234375 Z M162.265625,112.578125 L163.496094,114.335938 C163.828125,114.804688 164.199219,115.214844 164.570312,115.566406 C164.882812,115.839844 165.175781,116.035156 165.507812,116.152344 C165.859375,116.269531 166.269531,116.347656 166.738281,116.347656 C167.695312,116.347656 169.003906,116.347656 169.003906,113.222656 L169.003906,82.8125 C169.003906,81.8359375 168.828125,81.09375 168.515625,80.7421875 C168.320312,80.5273438 168.027344,80.2929688 167.324219,80.2929688 C166.679688,80.2929688 166.40625,80.5078125 166.210937,80.7226563 C165.898437,81.09375 165.722656,81.8359375 165.722656,82.8125 L165.722656,112.285156 L147.070312,84.0625 C146.660156,83.3984375 146.25,82.7539063 145.859375,82.1484375 C145.546875,81.640625 145.234375,81.25 144.941406,80.9570312 C144.726562,80.7421875 144.492188,80.5859375 144.21875,80.4492188 C143.984375,80.3320312 143.632812,80.2734375 143.222656,80.2734375 C142.714844,80.2734375 142.226562,80.4101562 141.777344,80.703125 C141.347656,80.9960938 141.054687,81.3085938 140.859375,81.7382812 C140.722656,82.0898438 140.585937,82.7539062 140.585937,83.984375 L140.585937,113.789062 C140.585937,114.453125 140.683594,115.351562 141.113281,115.839844 C141.328125,116.074219 141.621094,116.308594 142.304688,116.308594 C142.832031,116.308594 143.183594,116.152344 143.496094,115.820312 C143.925781,115.351562 144.023438,114.453125 144.023438,113.789062 L144.023438,84.5898438 L162.265625,112.578125 L162.265625,112.578125 Z" id="形状"></path>
        </g>
    </g>
</svg>