<svg class="icon" viewBox="0 0 1024 1024" version="1.1" xmlns="http://www.w3.org/2000/svg" width="200" height="200">
  <path fill="#ffffff" d="M288 96h320l192 192v640H288a96 96 0 0 1-96-96V192a96 96 0 0 1 96-96z m288 64v160h160L576 160zM320 416a32 32 0 1 0 0 64 32 32 0 0 0 0-64z m128 0a32 32 0 0 0 0 64h224a32 32 0 0 0 0-64H448zM320 544a32 32 0 1 0 0 64 32 32 0 0 0 0-64z m128 0a32 32 0 0 0 0 64h224a32 32 0 0 0 0-64H448zM320 672a32 32 0 1 0 0 64 32 32 0 0 0 0-64z m128 0a32 32 0 0 0 0 64h224a32 32 0 0 0 0-64H448z"/>
</svg>
