<?xml version="1.0" standalone="no"?><!DOCTYPE svg PUBLIC "-//W3C//DTD SVG 1.1//EN" "http://www.w3.org/Graphics/SVG/1.1/DTD/svg11.dtd"><svg t="1709582264711" class="icon" viewBox="0 0 1024 1024" version="1.1" xmlns="http://www.w3.org/2000/svg" p-id="1464" xmlns:xlink="http://www.w3.org/1999/xlink" width="200" height="200"><path d="M934.4 224a25.6 25.6 0 0 1 25.6 25.6v524.8a25.6 25.6 0 0 1-25.6 25.6H89.6a25.6 25.6 0 0 1-25.6-25.6V249.6a25.6 25.6 0 0 1 25.6-25.6h844.8z m-145.92 153.376a6.4 6.4 0 0 0-8.704 2.336l-49.408 85.568-49.408-85.568-1.28-1.6a6.4 6.4 0 0 0-7.456-0.736l-27.712 16-1.6 1.28a6.4 6.4 0 0 0-0.736 7.456l62.304 107.968-62.304 107.968a6.4 6.4 0 0 0 2.336 8.736l27.712 16a6.4 6.4 0 0 0 8.736-2.336l49.408-85.568 49.408 85.568 1.28 1.6a6.4 6.4 0 0 0 7.456 0.736l27.712-16 1.6-1.28a6.4 6.4 0 0 0 0.736-7.456l-62.336-107.968 62.336-107.968a6.4 6.4 0 0 0-2.336-8.736z m-243.264 7.392H501.76a6.4 6.4 0 0 0-6.4 6.4l0.064-1.696-64.544 236.352-0.224 1.728a6.4 6.4 0 0 0 4.768 6.144l30.88 8.256a6.4 6.4 0 0 0 7.84-4.48l19.2-70.528h60.48l19.392 70.528 0.64 1.6a6.4 6.4 0 0 0 7.168 2.88l30.912-8.256 1.6-0.672a6.4 6.4 0 0 0 2.912-7.2l-65.184-237.152a6.752 6.752 0 0 0-6.048-3.904z m-303.168-0.128h-32a6.4 6.4 0 0 0-6.4 6.4v243.2c0 3.52 2.88 6.4 6.4 6.4h32a6.4 6.4 0 0 0 6.4-6.4v-140.672l51.808 108.48 0.928 1.408a6.4 6.4 0 0 0 10.656-1.504l0.096-0.192 51.712-108.32v140.8c0 3.52 2.88 6.4 6.4 6.4h32a6.4 6.4 0 0 0 6.4-6.4v-243.2a6.4 6.4 0 0 0-6.4-6.4h-32a7.136 7.136 0 0 0-5.248 2.4l-58.784 122.56-58.304-121.536-0.992-1.376a6.4 6.4 0 0 0-4.672-2.048z m281.44 72.096l17.984 65.408h-35.84l17.856-65.408z" fill="#ffffff" p-id="1465"></path></svg>