<?xml version="1.0" standalone="no"?><!DOCTYPE svg PUBLIC "-//W3C//DTD SVG 1.1//EN" "http://www.w3.org/Graphics/SVG/1.1/DTD/svg11.dtd"><svg t="1728294869935" class="icon" viewBox="0 0 1024 1024" version="1.1" xmlns="http://www.w3.org/2000/svg" p-id="1436" data-darkreader-inline-fill="" xmlns:xlink="http://www.w3.org/1999/xlink" width="200" height="200"><path d="M512 992c-137.6 0-262.4-57.6-348.8-150.4l-3.2-3.2C80 748.8 32 636.8 32 512c0-124.8 48-236.8 124.8-323.2l3.2-3.2C249.6 89.6 374.4 32 512 32s262.4 57.6 348.8 150.4l3.2 3.2c80 89.6 128 201.6 128 326.4 0 124.8-48 236.8-124.8 323.2 0 3.2-3.2 3.2-3.2 6.4C774.4 934.4 649.6 992 512 992z m32-288v217.6c51.2-19.2 99.2-86.4 128-185.6-38.4-16-83.2-28.8-128-32z m-192 32c28.8 99.2 80 166.4 128 185.6V704c-44.8 3.2-89.6 16-128 32z m377.6 28.8c-16 51.2-38.4 96-64 131.2 48-19.2 92.8-48 131.2-83.2-22.4-16-41.6-32-67.2-48zM227.2 816c38.4 35.2 83.2 64 131.2 83.2-25.6-35.2-48-80-64-131.2-25.6 12.8-44.8 28.8-67.2 48z m521.6-115.2c32 19.2 64 41.6 92.8 67.2 48-64 80-140.8 86.4-224H768c-3.2 57.6-9.6 108.8-19.2 156.8zM96 544c6.4 83.2 38.4 163.2 86.4 224 28.8-25.6 57.6-48 92.8-67.2-9.6-48-16-99.2-19.2-156.8H96z m448 96c51.2 3.2 99.2 16 144 32 6.4-38.4 12.8-83.2 16-131.2H544V640z m-224-96c3.2 48 6.4 89.6 16 131.2 44.8-19.2 96-28.8 144-32v-96H320z m448-64h160c-6.4-83.2-38.4-163.2-86.4-224-28.8 25.6-57.6 48-92.8 67.2 9.6 48 16 99.2 19.2 156.8z m-224 0h160c-3.2-48-6.4-89.6-16-131.2-44.8 19.2-96 28.8-144 32V480z m-224 0h160v-96c-51.2-3.2-99.2-16-144-32-9.6 38.4-12.8 80-16 128z m-224 0h160c3.2-57.6 9.6-108.8 19.2-156.8-32-19.2-64-41.6-92.8-67.2-48 60.8-80 140.8-86.4 224z m256-192c41.6 16 83.2 28.8 128 32V102.4c-51.2 19.2-99.2 86.4-128 185.6z m192-185.6V320c44.8-3.2 89.6-12.8 128-32-28.8-99.2-76.8-166.4-128-185.6zM227.2 208c19.2 19.2 41.6 35.2 64 51.2 16-51.2 38.4-96 64-131.2-44.8 16-89.6 44.8-128 80z m438.4-83.2c25.6 35.2 48 80 64 131.2 22.4-12.8 44.8-32 64-51.2-35.2-32-80-60.8-128-80z" p-id="1437" fill="#ffffff" data-darkreader-inline-fill="" style="--darkreader-inline-fill: #222425;"></path></svg>