<?xml version="1.0" standalone="no"?><!DOCTYPE svg PUBLIC "-//W3C//DTD SVG 1.1//EN" "http://www.w3.org/Graphics/SVG/1.1/DTD/svg11.dtd"><svg t="1768348812032" class="icon" viewBox="0 0 1024 1024" version="1.1" xmlns="http://www.w3.org/2000/svg" p-id="5803" xmlns:xlink="http://www.w3.org/1999/xlink" width="200" height="200"><path d="M795.927273 477.090909c-13.963636-2.327273-23.272727-13.963636-23.272728-27.927273 0-102.4-65.163636-197.818182-162.90909-228.072727-134.981818-41.890909-262.981818 34.909091-302.545455 151.272727-2.327273 9.309091-11.636364 16.290909-20.945455 18.618182-109.381818 20.945455-193.163636 118.690909-193.163636 235.054546v2.327272c0 104.727273 88.436364 186.181818 190.836364 186.181819h477.090909c93.090909-2.327273 167.563636-76.8 167.563636-169.89091 2.327273-81.454545-55.854545-148.945455-132.654545-167.563636z m-139.636364 95.418182l-109.381818 109.381818c-11.636364 11.636364-27.927273 13.963636-41.890909 9.309091h-2.327273c-4.654545-2.327273-9.309091-4.654545-13.963636-9.309091l-109.381818-109.381818c-13.963636-13.963636-13.963636-39.563636 0-53.527273 13.963636-13.963636 39.563636-13.963636 53.527272 0l46.545455 46.545455V442.181818c0-20.945455 16.290909-37.236364 37.236363-37.236363 20.945455 0 37.236364 16.290909 37.236364 37.236363v123.345455l46.545455-46.545455c16.290909-16.290909 39.563636-16.290909 55.854545 0 16.290909 13.963636 16.290909 37.236364 0 53.527273z" fill="#ffffff" p-id="5804"></path></svg>