<svg xmlns="http://www.w3.org/2000/svg" width="64" height="64"
     viewBox="0 0 64 64">
    <g fill="none" fill-rule="evenodd">
        <path fill="#049DEE" fill-rule="nonzero"
              d="M37.4039924,23.8059658 C38.488134,22.7291912 40.2430484,22.7316643 41.3241283,23.8114902 C46.0484027,28.529676 46.2432446,36.1053797 41.767708,41.0584388 L41.3241283,41.5280067 L27.4567169,55.338824 C22.5419027,60.2225477 14.5864709,60.2200762 9.67471453,55.3332997 C4.77509516,50.4387453 4.77509516,42.5168618 9.67471453,37.6223075 C10.7610323,36.573888 12.4902832,36.5863732 13.5612364,37.6503682 C14.6321896,38.7143632 14.6496127,40.4372036 13.6003951,41.5224823 C10.8601166,44.2588985 10.8576372,48.6881406 13.5948504,51.4276005 C16.2047632,54.0213551 20.3807523,54.1707227 23.1706278,51.7701088 L23.5393535,51.4303627 L37.3984477,37.6195453 C40.1390354,34.8812877 40.1390354,30.4499226 37.3984477,27.711665 C36.3176929,26.631516 36.3201751,24.8830644 37.4039924,23.8059658 L37.4039924,23.8059658 Z"/>
        <path fill="#03CD8E" fill-rule="nonzero"
              d="M37.5432831,9.6576674 C42.4580973,4.77862395 50.4135291,4.78109308 55.3252855,9.66318641 C60.2249048,14.5530501 60.2249048,22.4673419 55.3252855,27.3572056 C54.6302184,28.0754728 53.5998827,28.3645687 52.6302628,28.1133864 C51.6606429,27.862204 50.9026224,27.1098302 50.6475278,26.1454213 C50.3924333,25.1810125 50.6799603,24.1546413 51.3996049,23.4607685 C54.1398834,20.7269746 54.1423628,16.3019772 51.4051496,13.5651426 C48.7952368,10.9738737 44.6192477,10.8246493 41.8293722,13.2229626 L41.4606465,13.5623831 L27.6015523,27.3599651 C24.8609646,30.0955986 24.8609646,34.522717 27.6015523,37.2583505 C28.3211969,37.9522233 28.6087239,38.9785944 28.3536294,39.9430033 C28.0985348,40.9074122 27.3405143,41.659786 26.3708944,41.9109684 C25.4012745,42.1621507 24.3709388,41.8730548 23.6758717,41.1547876 C18.9515973,36.4411233 18.7567554,28.8726797 23.232292,23.9243672 L23.6758717,23.4552494 L37.5432831,9.6576674 L37.5432831,9.6576674 Z"/>
    </g>
</svg>
