<?xml version="1.0" standalone="no"?><!DOCTYPE svg PUBLIC "-//W3C//DTD SVG 1.1//EN" "http://www.w3.org/Graphics/SVG/1.1/DTD/svg11.dtd"><svg t="1704667764024" class="icon" viewBox="0 0 1024 1024" version="1.1" xmlns="http://www.w3.org/2000/svg" p-id="1465" xmlns:xlink="http://www.w3.org/1999/xlink" width="200" height="200"><path d="M928.900741 512c0-56.225185-10.998519-110.838519-32.805926-162.322963-20.954074-49.682963-51.01037-94.245926-89.315556-132.456296-38.305185-38.305185-82.868148-68.361481-132.456296-89.315556C622.933333 106.192593 568.32 95.099259 512 95.099259s-110.838519 10.998519-162.322963 32.805926c-49.682963 20.954074-94.245926 51.01037-132.456296 89.315556-38.305185 38.305185-68.361481 82.868148-89.315556 132.456296C106.192593 401.066667 95.099259 455.68 95.099259 512s10.998519 110.838519 32.805926 162.322963c20.954074 49.682963 51.01037 94.245926 89.315556 132.456296 38.305185 38.305185 82.868148 68.361481 132.456296 89.315556C401.066667 917.807407 455.68 928.900741 512 928.900741c49.493333 0 97.564444-8.438519 143.17037-25.220741 26.358519 14.601481 56.604444 22.945185 88.841482 22.945185 101.167407 0 183.087407-82.014815 183.087407-183.087407 0-32.331852-8.438519-62.767407-23.134815-89.125926 16.592593-45.416296 24.936296-93.202963 24.936297-142.411852zM260.835556 763.164444C193.706667 696.13037 156.728889 606.90963 156.728889 512c0-94.90963 36.977778-184.13037 104.011852-251.164444 67.128889-67.128889 156.34963-104.011852 251.164444-104.011852 94.90963 0 184.13037 36.977778 251.164445 104.011852C830.198519 327.964444 867.081481 417.185185 867.081481 512c0 29.771852-3.602963 58.88-10.714074 87.134815-31.004444-24.177778-70.068148-38.684444-112.545185-38.684445-101.167407 0-183.087407 82.014815-183.087407 183.087408 0 42.571852 14.506667 81.73037 38.874074 112.829629-28.444444 7.205926-57.742222 10.903704-87.798519 10.903704-94.72 0-183.940741-36.977778-250.974814-104.106667z m453.973333-102.115555c0-16.971852 13.842963-30.814815 30.814815-30.814815s30.814815 13.842963 30.814815 30.814815v91.401481c0 16.971852-13.842963 30.814815-30.814815 30.814815s-30.814815-13.842963-30.814815-30.814815v-91.401481z m31.952592 195.792592c-16.687407 0-30.151111-13.558519-30.151111-30.151111 0-16.687407 13.558519-30.151111 30.151111-30.151111 16.687407 0 30.151111 13.558519 30.151112 30.151111 0 16.687407-13.463704 30.151111-30.151112 30.151111z" p-id="1466" fill="#ffffff"></path><path d="M519.68 274.10963c-16.971852 0-30.814815 13.842963-30.814815 30.814814v210.394075H278.471111c-16.971852 0-30.814815 13.842963-30.814815 30.814814s13.842963 30.814815 30.814815 30.814815h241.208889c16.971852 0 30.814815-13.842963 30.814815-30.814815V304.924444c0-16.971852-13.842963-30.814815-30.814815-30.814814z" p-id="1467" fill="#ffffff"></path></svg>