<?xml version="1.0" encoding="UTF-8"?>
<svg width="280px" height="280px" viewBox="0 0 280 280" version="1.1" xmlns="http://www.w3.org/2000/svg" xmlns:xlink="http://www.w3.org/1999/xlink">
    <title>Extra Large@1x</title>
    <g id="Extra-Large" stroke="none" stroke-width="1" fill="none" fill-rule="evenodd">
        <g id="uri" transform="translate(40, 56)" fill="#FFFFFF" fill-rule="nonzero">
            <path d="M185.241667,22.8166726 C182.36419,22.8181602 179.704498,21.2844202 178.26447,18.7931967 C176.824443,16.3019731 176.822854,13.2317421 178.260303,10.7390299 C179.697753,8.2463177 182.355857,6.70982667 185.233333,6.70833701 C189.681527,6.706037 193.289365,10.3101447 193.291668,14.7583381 C193.293968,19.2065315 189.68986,22.8143702 185.241667,22.8166726 M105.175,160.575006 C102.297523,160.576493 99.6378312,159.042753 98.1978037,156.55153 C96.7577762,154.060306 96.7561878,150.990075 98.193637,148.497363 C99.6310861,146.004651 102.28919,144.46816 105.166667,144.46667 C109.61486,144.46437 113.222699,148.068478 113.225001,152.516671 C113.227301,156.964865 109.623193,160.572703 105.175,160.575006 M185.241667,4.71263458e-06 C177.091667,4.71263458e-06 170.483333,6.60833811 170.483333,14.7583381 C170.483333,16.5000047 170.925,18.1166715 171.475,19.6666715 L102.233333,138.341672 C95.5416666,139.741672 90.4166666,145.400005 90.4166666,152.508338 C90.6070902,160.520254 97.1566544,166.916001 105.170833,166.916001 C113.185012,166.916001 119.734576,160.520254 119.925,152.508338 C119.925,150.866672 119.483333,149.375005 119,147.900005 L188.591667,28.8333381 C195.083333,27.2750047 200.008333,21.7166715 200.008333,14.7500047 C199.999136,6.60110941 193.390567,4.71263458e-06 185.241667,4.71263458e-06 M124.85,22.8166726 C121.972523,22.8181602 119.312831,21.2844203 117.872803,18.7931967 C116.432776,16.3019731 116.431188,13.2317421 117.868637,10.7390299 C119.306086,8.24631767 121.96419,6.70982664 124.841667,6.70833701 C129.28986,6.706037 132.897699,10.3101447 132.900001,14.7583381 C132.902301,19.2065315 129.298193,22.8143702 124.85,22.8166726 M44.775,160.575005 C41.895736,160.575453 39.2349945,159.039641 37.7952331,156.5462 C36.3554717,154.052759 36.3554717,150.980584 37.7952331,148.487143 C39.2349945,145.993701 41.895736,144.45789 44.775,144.458338 C49.2250047,144.459031 52.8320788,148.066667 52.8320788,152.516671 C52.8320788,156.966676 49.2250047,160.574312 44.775,160.575005 M124.85,2.3538054e-06 C120.935169,-0.0022076992 117.180043,1.5519732 114.411839,4.32017733 C111.643635,7.08838147 110.089454,10.8435069 110.091667,14.7583381 C110.091667,16.5000024 110.533333,18.1166715 111.083333,19.6666715 L41.8416666,138.341672 C35.1416666,139.741672 30.0166666,145.400005 30.0166666,152.508338 C30.0166666,160.658478 36.6248605,167.264974 44.7749999,167.264974 C52.9251394,167.264974 59.5323956,160.658478 59.5333332,152.508338 C59.5333332,150.866672 59.0916666,149.375005 58.6083332,147.900005 L128.2,28.8333381 C134.691667,27.2750047 139.616667,21.7166715 139.616667,14.7500047 C139.607469,6.60110941 132.9989,2.3538054e-06 124.85,2.3538054e-06 M14.5666666,47.4916714 C17.4459306,47.4912233 20.1066721,49.0270349 21.5464335,51.520476 C22.9861949,54.0139171 22.9861949,57.0860926 21.5464335,59.5795337 C20.1066721,62.0729748 17.4459306,63.6087864 14.5666666,63.6083382 C10.1166619,63.6076453 6.50958775,60.0000095 6.50958775,55.5500048 C6.50958775,51.1000001 10.1166619,47.4923643 14.5666666,47.4916714 M14.5666666,40.9916715 C6.5333332,40.9916715 5.32907052e-15,47.5250049 5.32907052e-15,55.5583381 C5.32907052e-15,63.5916713 6.5333334,70.1250047 14.5666666,70.1250047 C22.5999998,70.1250047 29.1333332,63.5916713 29.1333332,55.5583381 C29.1333332,47.5250049 22.5999998,40.9916715 14.5666666,40.9916715 Z M14.5666666,99.0666714 C17.4459306,99.0662233 20.1066721,100.602035 21.5464335,103.095476 C22.9861949,105.588917 22.9861949,108.661093 21.5464335,111.154534 C20.1066721,113.647975 17.4459306,115.183786 14.5666666,115.183338 C10.1166619,115.182645 6.50958775,111.57501 6.50958775,107.125005 C6.50958775,102.675 10.1166619,99.0673643 14.5666666,99.0666714 M14.5666666,92.5666715 C6.5333332,92.5666715 0,99.1000049 0,107.133338 C0,115.166671 6.5333334,121.700005 14.5666666,121.700005 C22.5999998,121.700005 29.1333332,115.166671 29.1333332,107.133338 C29.1333332,99.1000049 22.5999998,92.5666715 14.5666666,92.5666715 Z" id="形状"></path>
        </g>
    </g>
</svg>