<?xml version="1.0" encoding="utf-8"?>
<!-- Generator: Adobe Illustrator 26.4.1, SVG Export Plug-In . SVG Version: 6.00 Build 0)  -->
<svg version="1.1" id="图层_1" xmlns="http://www.w3.org/2000/svg" xmlns:xlink="http://www.w3.org/1999/xlink" x="0px" y="0px"
	 viewBox="0 0 1024 1024" style="enable-background:new 0 0 1024 1024;" xml:space="preserve">
<style type="text/css">
	.st0{fill:#FFFFFF;fill-opacity:0.6;}
</style>
<path class="st0" d="M718.7,813.7c-21.7,0-39.3,17.6-39.3,39.3v1.6c-0.1,18.7-15.2,33.8-33.8,33.8H170.8
	c-18.7-0.1-33.8-15.2-33.8-33.8V379.9c0-18.7,15.2-33.8,33.9-33.8h-2c21.7,0,39.3-17.6,39.3-39.3c0-21.7-17.6-39.3-39.3-39.3l0,0h2
	c-62.2,0-112.6,50.4-112.6,112.6v474.7c0,62.1,50.5,112.6,112.6,112.6h474.7c62.1,0,112.6-50.5,112.6-112.6v-1.6
	C758,831.3,740.5,813.7,718.7,813.7L718.7,813.7z M847.7,56.6H383.9c-65.2,0.1-118,52.9-118.1,118.1v463.7
	c0.1,65.2,52.9,118,118.1,118.1h463.8c65.2-0.1,118-52.9,118.1-118.1V174.7C965.7,109.5,912.8,56.7,847.7,56.6z M887,638.5
	c0,21.7-17.6,39.3-39.3,39.3H383.9c-21.7,0-39.3-17.6-39.3-39.3V174.7c0-21.7,17.6-39.4,39.3-39.4h463.8c21.7,0,39.3,17.7,39.3,39.4
	V638.5L887,638.5z"/>
</svg>
