<?xml version="1.0" encoding="utf-8"?>
<!-- Generator: Adobe Illustrator 26.4.1, SVG Export Plug-In . SVG Version: 6.00 Build 0)  -->
<svg version="1.1" id="图层_1" xmlns="http://www.w3.org/2000/svg" xmlns:xlink="http://www.w3.org/1999/xlink" x="0px" y="0px"
	 viewBox="0 0 1024 1024" style="enable-background:new 0 0 1024 1024;" xml:space="preserve">
<style type="text/css">
	.st0{fill:#FFFFFF;fill-opacity:0.65;}
</style>
<path class="st0" d="M890,237l1.5-66.9H679.2V89.9c0-29.5-23.9-53.5-53.5-53.5l0,0H398.4c-29.5,0-53.5,23.9-53.5,53.5c0,0,0,0,0,0
	v80.2h-206l-0.7,66.9h39.6v668.6c0,36.9,29.9,66.9,66.9,66.9h534.9c36.9,0,66.9-29.9,66.9-66.9V237H890z M411.8,103.2h200.6v66.9
	H411.8V103.2z M779.5,905.5H244.6V237h534.9V905.5z M445.2,370.7v401.2h-66.9V370.7H445.2z M645.8,771.8V370.7h-66.9v401.2H645.8z"
	/>
</svg>
