<svg class="icon"
    style="width: 1em;height: 1em;vertical-align: middle;fill: currentColor;overflow: hidden;"
    viewBox="0 0 1024 1024" version="1.1" xmlns="http://www.w3.org/2000/svg" p-id="11318">
    <path
        d="M203.1 599.3c-48.9 0-88.6-39.6-88.6-88.5s39.6-88.5 88.6-88.5c48.9 0 88.6 39.6 88.6 88.5-0.1 48.9-39.7 88.5-88.6 88.5z m309.9 0c-48.9 0-88.6-39.6-88.6-88.5s39.6-88.5 88.6-88.5c48.9 0 88.6 39.6 88.6 88.5s-39.7 88.5-88.6 88.5z m309.9 0c-48.9 0-88.6-39.6-88.6-88.5s39.6-88.5 88.6-88.5c48.9 0 88.6 39.6 88.6 88.5s-39.6 88.5-88.6 88.5z"
        fill="#FFF" fill-opacity=".65" p-id="11319"></path>
</svg>