<svg class="icon"
	style="width: 1em;height: 1em;vertical-align: middle;fill: currentColor;overflow: hidden;"
	viewBox="0 0 1024 1024" version="1.1" xmlns="http://www.w3.org/2000/svg" p-id="9428">
	<path
		d="M533.333333 32A96 96 0 0 0 437.333333 128v10.666667H234.666667c-29.44 0-53.333333 23.893333-53.333334 53.333333v725.333333c0 29.44 23.893333 53.333333 53.333334 53.333334h597.333333c29.44 0 53.333333-23.893333 53.333333-53.333334v-725.333333c0-29.44-23.893333-53.333333-53.333333-53.333333h-202.666667V128A96 96 0 0 0 533.333333 32zM501.333333 128a32 32 0 0 1 64 0v41.6c0 18.304 14.805333 33.066667 33.066667 33.066667h52.266667v64h-234.666667v-64h52.266667a33.066667 33.066667 0 0 0 33.066666-33.066667V128z m213.333334 74.666667h106.666666v704H245.333333V202.666667h106.666667V277.333333c0 29.44 23.893333 53.333333 53.333333 53.333334h256c29.44 0 53.333333-23.893333 53.333334-53.333334V202.666667z"
		fill="#FFF" fill-opacity=".65" p-id="9429"></path>
</svg>